<?xml version="1.0" standalone="no"?>
<!DOCTYPE svg PUBLIC "-//W3C//DTD SVG 20010904//EN"
 "http://www.w3.org/TR/2001/REC-SVG-20010904/DTD/svg10.dtd">
<svg version="1.0" xmlns="http://www.w3.org/2000/svg"
 width="318.000000pt" height="159.000000pt" viewBox="0 0 318.000000 159.000000"
 preserveAspectRatio="xMidYMid meet">

<g transform="translate(0.000000,159.000000) scale(0.100000,-0.100000)"
fill="#000000" stroke="none">
<path d="M3080 995 c0 -5 5 -17 10 -25 5 -8 10 -10 10 -5 0 6 -5 17 -10 25 -5
8 -10 11 -10 5z"/>
<path d="M80 971 c0 -6 4 -13 10 -16 6 -3 7 1 4 9 -7 18 -14 21 -14 7z"/>
<path d="M67 926 c-5 -15 -6 -31 -3 -34 8 -8 18 25 14 45 -3 13 -6 10 -11 -11z"/>
<path d="M3092 920 c-6 -11 -9 -26 -6 -35 3 -8 1 -15 -5 -15 -6 0 -11 8 -12
18 0 15 -1 15 -8 -2 -7 -18 -8 -18 -14 -3 -6 16 -111 17 -1486 17 l-1479 0 -6
-22 c-5 -19 -8 -21 -16 -8 -7 10 -10 -11 -10 -71 0 -230 134 -410 357 -479 64
-20 93 -20 1182 -20 1210 0 1161 -2 1275 56 115 58 208 168 246 291 25 82 28
228 5 237 -8 3 -15 10 -15 16 0 6 5 8 10 5 12 -7 13 5 2 22 -6 9 -11 7 -20 -7z"/>
</g>
</svg>
